<svg id="Capa_1" enable-background="new 0 0 511.425 511.425" height="512" viewBox="0 0 511.425 511.425" width="512" xmlns="http://www.w3.org/2000/svg"><g><path d="m307.222 390.835 13.504 32.309c1.643 3.93 5.735 6.522 10.297 6.522h140.697c4.632 0 8.771-2.67 10.364-6.686l12.754-32.146h-187.616z" fill="#f9fbfc"/><path d="m320.725 128.767-13.504 32.31h187.616l-12.754-32.146c-1.593-4.015-5.732-6.685-10.364-6.685h5.594c4.323 0 7.827-3.504 7.827-7.827v-4.248c0-4.323-3.504-7.827-7.827-7.827h-95.583l-22.408-43.6c-1.077-2.729-3.713-4.523-6.647-4.523-5.042 0-8.498 5.08-6.648 9.769l20.216 38.354h-41.497c-4.323 0-7.827 3.505-7.827 7.827v4.248c0 4.323 3.504 7.827 7.827 7.827h6.277c-4.563-.001-8.655 2.591-10.298 6.521z" fill="#f9fbfc"/><g fill="#eaa895"><path d="m493.706 390.835c-.099.304-.167.622-.167.959 0 .513.137.989.357 1.415l.942-2.374z"/><path d="m486.272 405.259c1.712 0 3.099-1.387 3.099-3.099s-1.388-3.099-3.099-3.099c-1.712 0-3.099 1.388-3.099 3.099s1.388 3.099 3.099 3.099z"/><path d="m473.56 391.794c0 1.712 1.388 3.099 3.099 3.099 1.712 0 3.099-1.387 3.099-3.099 0-.337-.067-.656-.167-.959h-5.864c-.1.304-.167.622-.167.959z"/><path d="m466.293 399.061c-1.712 0-3.099 1.388-3.099 3.099s1.387 3.099 3.099 3.099 3.099-1.387 3.099-3.099-1.387-3.099-3.099-3.099z"/><path d="m479.758 411.773c0-1.712-1.387-3.099-3.099-3.099-1.711 0-3.099 1.388-3.099 3.099 0 1.712 1.388 3.099 3.099 3.099 1.712 0 3.099-1.387 3.099-3.099z"/><path d="m469.392 422.139c0-1.712-1.387-3.099-3.099-3.099s-3.099 1.388-3.099 3.099 1.387 3.099 3.099 3.099 3.099-1.388 3.099-3.099z"/><path d="m474.855 429.241c.553-.151 1.091-.341 1.607-.568-.598.039-1.149.239-1.607.568z"/><path d="m453.581 391.794c0 1.712 1.388 3.099 3.099 3.099 1.712 0 3.099-1.387 3.099-3.099 0-.337-.067-.656-.167-.959h-5.865c-.099.304-.166.622-.166.959z"/><path d="m456.68 414.872c1.712 0 3.099-1.387 3.099-3.099s-1.387-3.099-3.099-3.099c-1.711 0-3.099 1.388-3.099 3.099 0 1.712 1.388 3.099 3.099 3.099z"/><path d="m446.35 405.288c1.712 0 3.099-1.387 3.099-3.099s-1.387-3.099-3.099-3.099c-1.711 0-3.099 1.388-3.099 3.099 0 1.712 1.388 3.099 3.099 3.099z"/><path d="m446.314 425.238c1.712 0 3.099-1.387 3.099-3.099s-1.387-3.099-3.099-3.099-3.099 1.388-3.099 3.099 1.388 3.099 3.099 3.099z"/><path d="m456.68 428.653c-.905 0-1.712.395-2.279 1.014h4.557c-.566-.619-1.373-1.014-2.278-1.014z"/><path d="m436.701 428.653c-.905 0-1.712.395-2.279 1.014h4.557c-.566-.619-1.373-1.014-2.278-1.014z"/><path d="m486.272 145.532c.802 0 1.525-.313 2.076-.812l-2.134-5.38c-1.684.032-3.04 1.401-3.04 3.093-.001 1.712 1.387 3.099 3.098 3.099z"/><path d="m486.272 159.313c-1.231 0-2.285.724-2.785 1.764h5.571c-.5-1.04-1.554-1.764-2.786-1.764z"/><path d="m463.194 122.454c0 1.712 1.387 3.099 3.099 3.099s3.099-1.387 3.099-3.099c0-.072-.016-.139-.021-.209h-6.156c-.004.07-.021.138-.021.209z"/><path d="m473.56 132.068c0 1.712 1.388 3.099 3.099 3.099 1.712 0 3.099-1.387 3.099-3.099s-1.387-3.099-3.099-3.099c-1.711 0-3.099 1.387-3.099 3.099z"/><path d="m466.293 145.532c1.712 0 3.099-1.387 3.099-3.099s-1.387-3.099-3.099-3.099-3.099 1.388-3.099 3.099c0 1.712 1.388 3.099 3.099 3.099z"/><path d="m476.659 155.146c1.712 0 3.099-1.387 3.099-3.099s-1.387-3.099-3.099-3.099c-1.711 0-3.099 1.388-3.099 3.099s1.388 3.099 3.099 3.099z"/><path d="m466.293 159.313c-1.231 0-2.285.724-2.785 1.764h5.571c-.5-1.04-1.554-1.764-2.786-1.764z"/><path d="m443.215 122.454c0 1.712 1.387 3.099 3.099 3.099s3.099-1.387 3.099-3.099c0-.072-.016-.139-.021-.209h-6.156c-.004.07-.021.138-.021.209z"/><path d="m456.68 135.167c1.712 0 3.099-1.387 3.099-3.099s-1.387-3.099-3.099-3.099c-1.711 0-3.099 1.388-3.099 3.099s1.388 3.099 3.099 3.099z"/><path d="m449.413 142.433c0-1.712-1.387-3.099-3.099-3.099s-3.099 1.388-3.099 3.099c0 1.712 1.387 3.099 3.099 3.099s3.099-1.387 3.099-3.099z"/><path d="m439.829 131.997c0-1.712-1.387-3.099-3.099-3.099s-3.099 1.388-3.099 3.099 1.387 3.099 3.099 3.099 3.099-1.387 3.099-3.099z"/><path d="m456.68 155.146c1.712 0 3.099-1.387 3.099-3.099s-1.387-3.099-3.099-3.099c-1.711 0-3.099 1.388-3.099 3.099s1.388 3.099 3.099 3.099z"/><path d="m429.43 122.501c.001-.016.005-.031.005-.046 0-.072-.016-.139-.021-.209h-2.428c.835-.001 1.653.089 2.444.255z"/></g><path d="m389.822 303.374c-6.829-12.612-20.167-21.188-35.518-21.214l-255.128-.436c-15.574-.026-29.098 8.759-35.878 21.65z" fill="#e9c278"/><path d="m410.864 379.144-368.58-.629c-20.323-.035-36.771-16.538-36.736-36.861l.005-2.676c.035-20.323 16.538-36.77 36.861-36.736l368.58.629c20.323.035 36.77 16.538 36.736 36.862l-.005 2.676c-.034 20.323-16.538 36.77-36.861 36.735z" fill="#eaa895"/><path d="m362.111 429.566-271.247-.463c-17.885-.031-32.359-14.554-32.328-32.439l.065-38.305c.03-17.885 14.554-32.359 32.439-32.328l271.247.463c17.885.031 32.359 14.554 32.328 32.439l-.065 38.305c-.031 17.885-14.554 32.359-32.439 32.328z" fill="#e9c278"/><g fill="#f9fbfc"><path d="m386.378 393.013c-1.711 0-3.099 1.388-3.099 3.099 0 1.712 1.388 3.099 3.099 3.099 1.712 0 3.099-1.388 3.099-3.099s-1.388-3.099-3.099-3.099z"/><path d="m376.727 382.611c-1.712 0-3.099 1.388-3.099 3.099 0 1.712 1.387 3.099 3.099 3.099s3.099-1.388 3.099-3.099-1.387-3.099-3.099-3.099z"/><path d="m386.378 412.992c-1.711 0-3.099 1.388-3.099 3.099 0 1.568 1.168 2.85 2.678 3.057 1.209-1.31 2.309-2.72 3.291-4.216-.46-1.136-1.569-1.94-2.87-1.94z"/><path d="m363.3 396.112c0 1.712 1.387 3.099 3.099 3.099 1.711 0 3.099-1.388 3.099-3.099s-1.388-3.099-3.099-3.099c-1.712 0-3.099 1.388-3.099 3.099z"/><path d="m376.764 402.627c-1.712 0-3.099 1.387-3.099 3.099s1.387 3.099 3.099 3.099 3.099-1.388 3.099-3.099c0-1.712-1.387-3.099-3.099-3.099z"/><path d="m366.399 419.19c1.711 0 3.099-1.388 3.099-3.099s-1.388-3.099-3.099-3.099c-1.712 0-3.099 1.388-3.099 3.099 0 1.712 1.387 3.099 3.099 3.099z"/><path d="m376.764 422.606c-1.712 0-3.099 1.387-3.099 3.099 0 .579.169 1.115.445 1.578 1.929-.766 3.765-1.712 5.492-2.817-.478-1.095-1.568-1.86-2.838-1.86z"/><path d="m346.42 399.211c1.712 0 3.099-1.388 3.099-3.099s-1.387-3.099-3.099-3.099-3.099 1.388-3.099 3.099c0 1.712 1.387 3.099 3.099 3.099z"/><path d="m356.785 402.627c-1.712 0-3.099 1.387-3.099 3.099s1.387 3.099 3.099 3.099 3.099-1.388 3.099-3.099c0-1.712-1.387-3.099-3.099-3.099z"/><path d="m346.42 419.19c1.712 0 3.099-1.388 3.099-3.099s-1.387-3.099-3.099-3.099-3.099 1.388-3.099 3.099c0 1.712 1.387 3.099 3.099 3.099z"/><path d="m359.884 425.704c0-1.711-1.388-3.099-3.099-3.099-1.712 0-3.099 1.387-3.099 3.099s1.387 3.099 3.099 3.099c1.712.001 3.099-1.387 3.099-3.099z"/><path d="m326.441 399.211c1.712 0 3.099-1.388 3.099-3.099s-1.387-3.099-3.099-3.099-3.099 1.388-3.099 3.099c0 1.712 1.387 3.099 3.099 3.099z"/><path d="m336.806 408.825c1.712 0 3.099-1.388 3.099-3.099 0-1.712-1.387-3.099-3.099-3.099s-3.099 1.387-3.099 3.099c0 1.711 1.388 3.099 3.099 3.099z"/><path d="m326.441 419.19c1.712 0 3.099-1.388 3.099-3.099s-1.387-3.099-3.099-3.099-3.099 1.388-3.099 3.099c0 1.712 1.387 3.099 3.099 3.099z"/><path d="m336.806 428.804c1.712 0 3.099-1.388 3.099-3.099s-1.387-3.099-3.099-3.099-3.099 1.387-3.099 3.099c0 1.711 1.388 3.099 3.099 3.099z"/><path d="m306.462 399.211c1.711 0 3.099-1.388 3.099-3.099s-1.388-3.099-3.099-3.099c-1.712 0-3.099 1.388-3.099 3.099 0 1.712 1.387 3.099 3.099 3.099z"/><path d="m316.827 408.825c1.712 0 3.099-1.388 3.099-3.099 0-1.712-1.387-3.099-3.099-3.099s-3.099 1.387-3.099 3.099c0 1.711 1.388 3.099 3.099 3.099z"/><path d="m306.462 419.19c1.711 0 3.099-1.388 3.099-3.099s-1.388-3.099-3.099-3.099c-1.712 0-3.099 1.388-3.099 3.099 0 1.712 1.387 3.099 3.099 3.099z"/><path d="m316.827 428.804c1.712 0 3.099-1.388 3.099-3.099s-1.387-3.099-3.099-3.099-3.099 1.387-3.099 3.099c0 1.711 1.388 3.099 3.099 3.099z"/><path d="m286.483 399.211c1.712 0 3.099-1.388 3.099-3.099s-1.387-3.099-3.099-3.099-3.099 1.388-3.099 3.099c0 1.712 1.387 3.099 3.099 3.099z"/><path d="m296.848 408.825c1.712 0 3.099-1.388 3.099-3.099 0-1.712-1.388-3.099-3.099-3.099s-3.099 1.387-3.099 3.099c0 1.711 1.388 3.099 3.099 3.099z"/><path d="m286.483 419.19c1.712 0 3.099-1.388 3.099-3.099s-1.387-3.099-3.099-3.099-3.099 1.388-3.099 3.099c0 1.712 1.387 3.099 3.099 3.099z"/><path d="m296.848 428.804c1.712 0 3.099-1.388 3.099-3.099s-1.388-3.099-3.099-3.099-3.099 1.387-3.099 3.099c0 1.711 1.388 3.099 3.099 3.099z"/><path d="m266.504 399.211c1.712 0 3.099-1.388 3.099-3.099s-1.387-3.099-3.099-3.099-3.099 1.388-3.099 3.099c0 1.712 1.387 3.099 3.099 3.099z"/><path d="m276.87 408.825c1.711 0 3.099-1.388 3.099-3.099 0-1.712-1.388-3.099-3.099-3.099-1.712 0-3.099 1.387-3.099 3.099-.001 1.711 1.387 3.099 3.099 3.099z"/><path d="m266.504 419.19c1.712 0 3.099-1.388 3.099-3.099s-1.387-3.099-3.099-3.099-3.099 1.388-3.099 3.099c0 1.712 1.387 3.099 3.099 3.099z"/><path d="m276.87 428.804c1.711 0 3.099-1.388 3.099-3.099s-1.388-3.099-3.099-3.099c-1.712 0-3.099 1.387-3.099 3.099-.001 1.711 1.387 3.099 3.099 3.099z"/><path d="m246.525 399.211c1.712 0 3.099-1.388 3.099-3.099s-1.387-3.099-3.099-3.099-3.099 1.388-3.099 3.099c0 1.712 1.387 3.099 3.099 3.099z"/><path d="m256.891 408.825c1.712 0 3.099-1.388 3.099-3.099 0-1.712-1.387-3.099-3.099-3.099s-3.099 1.387-3.099 3.099c0 1.711 1.387 3.099 3.099 3.099z"/><path d="m246.525 419.19c1.712 0 3.099-1.388 3.099-3.099s-1.387-3.099-3.099-3.099-3.099 1.388-3.099 3.099c0 1.712 1.387 3.099 3.099 3.099z"/><path d="m256.891 428.804c1.712 0 3.099-1.388 3.099-3.099s-1.387-3.099-3.099-3.099-3.099 1.387-3.099 3.099c0 1.711 1.387 3.099 3.099 3.099z"/><path d="m226.546 399.211c1.712 0 3.099-1.388 3.099-3.099s-1.387-3.099-3.099-3.099-3.099 1.388-3.099 3.099c0 1.712 1.387 3.099 3.099 3.099z"/><path d="m236.911 408.825c1.712 0 3.099-1.388 3.099-3.099 0-1.712-1.388-3.099-3.099-3.099s-3.099 1.387-3.099 3.099c0 1.711 1.388 3.099 3.099 3.099z"/><path d="m226.546 419.19c1.712 0 3.099-1.388 3.099-3.099s-1.387-3.099-3.099-3.099-3.099 1.388-3.099 3.099c0 1.712 1.387 3.099 3.099 3.099z"/><path d="m236.911 428.804c1.712 0 3.099-1.388 3.099-3.099s-1.388-3.099-3.099-3.099-3.099 1.387-3.099 3.099c0 1.711 1.388 3.099 3.099 3.099z"/><path d="m206.567 399.211c1.712 0 3.099-1.388 3.099-3.099s-1.387-3.099-3.099-3.099-3.099 1.388-3.099 3.099c0 1.712 1.387 3.099 3.099 3.099z"/><path d="m216.933 408.825c1.712 0 3.099-1.388 3.099-3.099 0-1.712-1.387-3.099-3.099-3.099s-3.099 1.387-3.099 3.099c-.001 1.711 1.387 3.099 3.099 3.099z"/><path d="m206.567 419.19c1.712 0 3.099-1.388 3.099-3.099s-1.387-3.099-3.099-3.099-3.099 1.388-3.099 3.099c0 1.712 1.387 3.099 3.099 3.099z"/><path d="m216.933 428.804c1.712 0 3.099-1.388 3.099-3.099s-1.387-3.099-3.099-3.099-3.099 1.387-3.099 3.099c-.001 1.711 1.387 3.099 3.099 3.099z"/><path d="m186.588 399.211c1.712 0 3.099-1.388 3.099-3.099s-1.387-3.099-3.099-3.099-3.099 1.388-3.099 3.099c0 1.712 1.387 3.099 3.099 3.099z"/><path d="m196.954 408.825c1.712 0 3.099-1.388 3.099-3.099 0-1.712-1.387-3.099-3.099-3.099s-3.099 1.387-3.099 3.099c0 1.711 1.387 3.099 3.099 3.099z"/><path d="m186.588 419.19c1.712 0 3.099-1.388 3.099-3.099s-1.387-3.099-3.099-3.099-3.099 1.388-3.099 3.099c0 1.712 1.387 3.099 3.099 3.099z"/><path d="m196.954 428.804c1.712 0 3.099-1.388 3.099-3.099s-1.387-3.099-3.099-3.099-3.099 1.387-3.099 3.099c0 1.711 1.387 3.099 3.099 3.099z"/><path d="m166.609 399.211c1.712 0 3.099-1.388 3.099-3.099s-1.387-3.099-3.099-3.099-3.099 1.388-3.099 3.099c0 1.712 1.388 3.099 3.099 3.099z"/><path d="m176.975 408.825c1.712 0 3.099-1.388 3.099-3.099 0-1.712-1.387-3.099-3.099-3.099s-3.099 1.387-3.099 3.099c0 1.711 1.387 3.099 3.099 3.099z"/><path d="m166.609 419.19c1.712 0 3.099-1.388 3.099-3.099s-1.387-3.099-3.099-3.099-3.099 1.388-3.099 3.099c0 1.712 1.388 3.099 3.099 3.099z"/><path d="m176.975 428.804c1.712 0 3.099-1.388 3.099-3.099s-1.387-3.099-3.099-3.099-3.099 1.387-3.099 3.099c0 1.711 1.387 3.099 3.099 3.099z"/><path d="m146.63 399.211c1.712 0 3.099-1.388 3.099-3.099s-1.387-3.099-3.099-3.099-3.099 1.388-3.099 3.099c0 1.712 1.388 3.099 3.099 3.099z"/><path d="m156.996 408.825c1.712 0 3.099-1.388 3.099-3.099 0-1.712-1.387-3.099-3.099-3.099s-3.099 1.387-3.099 3.099c0 1.711 1.387 3.099 3.099 3.099z"/><path d="m146.63 419.19c1.712 0 3.099-1.388 3.099-3.099s-1.387-3.099-3.099-3.099-3.099 1.388-3.099 3.099c0 1.712 1.388 3.099 3.099 3.099z"/><path d="m156.996 428.804c1.712 0 3.099-1.388 3.099-3.099s-1.387-3.099-3.099-3.099-3.099 1.387-3.099 3.099c0 1.711 1.387 3.099 3.099 3.099z"/><path d="m126.651 399.211c1.712 0 3.099-1.388 3.099-3.099s-1.387-3.099-3.099-3.099-3.099 1.388-3.099 3.099c0 1.712 1.387 3.099 3.099 3.099z"/><path d="m137.017 408.825c1.712 0 3.099-1.388 3.099-3.099 0-1.712-1.388-3.099-3.099-3.099-1.712 0-3.099 1.387-3.099 3.099 0 1.711 1.387 3.099 3.099 3.099z"/><path d="m126.651 419.19c1.712 0 3.099-1.388 3.099-3.099s-1.387-3.099-3.099-3.099-3.099 1.388-3.099 3.099c0 1.712 1.387 3.099 3.099 3.099z"/><path d="m137.017 428.804c1.712 0 3.099-1.388 3.099-3.099s-1.388-3.099-3.099-3.099c-1.712 0-3.099 1.387-3.099 3.099 0 1.711 1.387 3.099 3.099 3.099z"/><path d="m106.672 399.211c1.712 0 3.099-1.388 3.099-3.099s-1.388-3.099-3.099-3.099-3.099 1.388-3.099 3.099c0 1.712 1.388 3.099 3.099 3.099z"/><path d="m117.038 408.825c1.712 0 3.099-1.388 3.099-3.099 0-1.712-1.387-3.099-3.099-3.099s-3.099 1.387-3.099 3.099c0 1.711 1.387 3.099 3.099 3.099z"/><path d="m106.672 419.19c1.712 0 3.099-1.388 3.099-3.099s-1.388-3.099-3.099-3.099-3.099 1.388-3.099 3.099c0 1.712 1.388 3.099 3.099 3.099z"/><path d="m117.038 428.804c1.712 0 3.099-1.388 3.099-3.099s-1.387-3.099-3.099-3.099-3.099 1.387-3.099 3.099c0 1.711 1.387 3.099 3.099 3.099z"/><path d="m86.693 393.013c-1.712 0-3.099 1.388-3.099 3.099 0 1.712 1.387 3.099 3.099 3.099s3.099-1.388 3.099-3.099-1.387-3.099-3.099-3.099z"/><path d="m77.168 382.611c-1.712 0-3.099 1.388-3.099 3.099 0 1.712 1.387 3.099 3.099 3.099s3.099-1.388 3.099-3.099-1.387-3.099-3.099-3.099z"/><path d="m97.059 408.825c1.712 0 3.099-1.388 3.099-3.099 0-1.712-1.387-3.099-3.099-3.099s-3.099 1.387-3.099 3.099c0 1.711 1.387 3.099 3.099 3.099z"/><path d="m89.792 416.091c0-1.711-1.387-3.099-3.099-3.099s-3.099 1.388-3.099 3.099c0 1.712 1.387 3.099 3.099 3.099s3.099-1.387 3.099-3.099z"/><path d="m97.059 428.804c1.712 0 3.099-1.388 3.099-3.099s-1.387-3.099-3.099-3.099-3.099 1.387-3.099 3.099c0 1.711 1.387 3.099 3.099 3.099z"/><path d="m63.615 396.112c0 1.712 1.387 3.099 3.099 3.099s3.099-1.388 3.099-3.099-1.387-3.099-3.099-3.099c-1.711 0-3.099 1.388-3.099 3.099z"/><path d="m77.08 408.825c1.711 0 3.099-1.388 3.099-3.099 0-1.712-1.388-3.099-3.099-3.099-1.712 0-3.099 1.387-3.099 3.099 0 1.711 1.387 3.099 3.099 3.099z"/><path d="m69.813 416.091c0-1.711-1.387-3.099-3.099-3.099-1.2 0-2.228.689-2.743 1.686 1.048 1.57 2.234 3.038 3.533 4.398 1.326-.351 2.309-1.548 2.309-2.985z"/><path d="m80.179 425.704c0-1.711-1.388-3.099-3.099-3.099-1.275 0-2.368.771-2.844 1.871 1.756 1.058 3.619 1.956 5.572 2.669.229-.432.371-.918.371-1.441z"/></g><path d="m495.384 429.117h-12.654c1.314-1.329 2.37-2.902 3.069-4.662l12.721-32.064c0-.001.001-.002.001-.003l.031-.079c.078-.196.133-.396.179-.598.012-.052.021-.104.031-.157.043-.234.07-.469.071-.704 0-.005.001-.011.001-.016v-229.758c0-.005-.001-.011-.001-.016-.001-.235-.028-.47-.071-.704-.01-.053-.019-.104-.031-.157-.045-.201-.101-.402-.179-.598l-.031-.079c0-.001-.001-.003-.001-.003l-12.721-32.063c-.467-1.175-1.1-2.263-1.855-3.255 3.132-2.129 5.193-5.72 5.193-9.783v-4.248c0-6.519-5.304-11.823-11.822-11.823h-93.145l-21.212-41.274c-1.738-4.169-5.75-6.849-10.282-6.849-3.691 0-7.135 1.822-9.212 4.874-2.077 3.053-2.507 6.924-1.152 10.358.054.135.114.267.181.396l17.127 32.495h-34.874c-6.518 0-11.822 5.304-11.822 11.823v4.248c0 4.254 2.266 7.979 5.648 10.062-.604.847-1.122 1.764-1.532 2.746l-13.495 32.287c-.002.006-.005.012-.007.018l-.002.004c-.089.212-.151.431-.201.651-.012.053-.024.105-.034.158-.043.231-.068.463-.07.697 0 .012-.003.023-.003.035v117l-204.043-.348h-.078c-11.841 0-22.978 4.602-31.367 12.962-2.335 2.328-4.37 4.875-6.102 7.588l-19.214-.033h-.069c-22.462 0-40.756 18.254-40.795 40.726l-.004 2.675c-.019 10.897 4.207 21.148 11.899 28.866 7.692 7.719 17.929 11.98 28.826 11.998l12.287.021-.024 14.125c-.024 14.137 8.066 26.42 19.863 32.46h-58.366c-8.859.001-16.041 7.183-16.041 16.043 0 8.859 7.182 16.041 16.041 16.041h479.343c8.859 0 16.041-7.182 16.041-16.041 0-8.86-7.182-16.042-16.041-16.042zm-17.014-7.61c-.988 2.491-3.661 4.164-6.65 4.164h-86.934c1.061-.846 2.086-1.748 3.061-2.72 6.882-6.859 10.682-15.989 10.699-25.706l.004-2.413h90.405zm-128.686-359.149c-.313-.939-.176-1.937.386-2.763.596-.876 1.545-1.378 2.605-1.378 1.302 0 2.452.782 2.93 1.993.048.123.103.243.163.36l19.416 37.779h-6.531zm-28.769 47.813c0-2.112 1.719-3.831 3.831-3.831h152.568c2.112 0 3.831 1.719 3.831 3.831v4.248c0 2.112-1.719 3.831-3.831 3.831h-5.594-140.698-6.277c-2.112 0-3.831-1.719-3.831-3.831v-4.248zm3.497 20.138c1.017-2.433 3.674-4.068 6.61-4.068h140.698c2.989 0 5.662 1.673 6.65 4.164l10.584 26.676h-175.732zm-251.033 166.043c6.881-6.858 16.014-10.631 25.726-10.631h.064l255.127.435c10.992.02 20.842 4.938 27.516 12.67l-310.238-.53c.576-.665 1.174-1.316 1.805-1.944zm-31.088 78.168c-8.762-.015-16.994-3.442-23.179-9.648-4.631-4.647-7.7-10.436-8.943-16.73l7.891 5.807c.713.525 1.543.778 2.366.778 1.227 0 2.438-.563 3.221-1.627 1.308-1.777.928-4.279-.85-5.587l-9.641-7.095 10.656-6.483c1.885-1.146 2.484-3.605 1.337-5.49-1.145-1.884-3.604-2.485-5.49-1.336l-9.525 5.794c2.884-15.168 16.234-26.664 32.218-26.664h.056l368.58.629c8.762.016 16.994 3.442 23.179 9.647 4.395 4.41 7.374 9.851 8.73 15.774l-7.806-5.439c-1.812-1.261-4.303-.815-5.563.994-1.261 1.811-.817 4.301.994 5.564l9.822 6.843-10.484 6.756c-1.855 1.195-2.389 3.668-1.194 5.523.764 1.185 2.05 1.831 3.363 1.831.741 0 1.491-.206 2.161-.637l9.067-5.842c-2.64 15.464-16.132 27.268-32.327 27.268h-.056l-12.288-.021.028-16.188c.017-9.717-3.752-18.859-10.612-25.742-6.859-6.882-15.988-10.682-25.705-10.699l-271.247-.463c-.022 0-.041 0-.062 0-20.03 0-36.345 16.28-36.379 36.317l-.028 16.188zm20.241 22.151.066-38.304c.026-15.637 12.756-28.339 28.387-28.339h.049l271.247.463c7.583.013 14.706 2.977 20.059 8.349 5.353 5.371 8.293 12.504 8.28 20.087l-.066 38.304c-.013 7.583-2.977 14.707-8.349 20.06-5.359 5.34-12.472 8.279-20.036 8.279-.017 0-.034 0-.051 0l-271.247-.462c-15.653-.027-28.366-12.784-28.339-28.437z" fill="#31373d"/><path d="m401.03 230.432c-25.142 0-45.523 20.381-45.523 45.523 0 .751.039 1.492.075 2.234 15.212.457 28.512 8.594 36.173 20.653l19.246.033c8.645.015 16.868 2.709 23.742 7.671 7.338-8.082 11.81-18.814 11.81-30.591 0-25.141-20.381-45.523-45.523-45.523z" fill="#f9fbfc"/></g></svg>